<?xml version="1.0" encoding="utf-8"?>
<!-- Svg Vector Icons : http://www.onlinewebfonts.com/icon -->
<!DOCTYPE svg PUBLIC "-//W3C//DTD SVG 1.1//EN" "http://www.w3.org/Graphics/SVG/1.1/DTD/svg11.dtd">
<svg version="1.1" xmlns="http://www.w3.org/2000/svg" xmlns:xlink="http://www.w3.org/1999/xlink" x="0px" y="0px" viewBox="0 0 1000 1000" enable-background="new 0 0 1000 1000" xml:space="preserve">
<metadata> Svg Vector Icons : http://www.onlinewebfonts.com/icon </metadata>
<g><g transform="translate(0.000000,512.000000) scale(0.100000,-0.100000)"><path d="M1686,4988.2c-361.7-86.1-666-394.2-752.1-757.9C909,4127,905.1,3587.3,905.1,261v-3846.8l-67-32.5c-109.1-51.7-223.9-170.3-281.3-290.9c-51.7-111-53.6-122.5-53.6-430.6c0-338.8,7.7-367.5,109.1-419.1c30.6-15.3,844-21.1,2947.3-21.1c2830.5,0,2907.1,1.9,2964.5,36.4c91.9,55.5,109.1,135.9,97.6,440.2c-5.7,176.1-19.1,289-42.1,352.1c-40.2,112.9-191.4,281.3-294.7,329.2l-78.5,34.5v2457.4V1327l44-11.5c267.9-80.4,495.7-367.5,616.3-788.5c95.7-329.2,162.7-899.5,162.7-1393.2c0-128.2-13.4-432.5-30.6-679.4c-45.9-669.8-42.1-1182.8,9.6-1435.4c139.7-669.8,574.2-1000.9,1282.3-972.2c356,15.3,574.2,118.7,752.1,359.8c112.9,153.1,174.2,302.4,227.7,558.8c34.5,162.7,42.1,260.3,42.1,570.3c1.9,430.6-13.4,595.2-134,1406.7l-90,593.3l-7.6,752.1l-5.7,752.1l135.9,145.4c197.1,206.7,271.8,367.5,283.2,614.3c15.3,365.5-40.2,555-262.2,880.4c-447.8,652.6-1272.7,1215.3-2139.7,1458.3c-264.1,74.6-336.8,74.6-409.6,1.9c-44-45.9-55.5-72.7-55.5-141.6c0-107.2,57.4-174.2,174.1-204.8c199-47.9,537.8-162.7,696.6-235.4c189.5-84.2,505.3-262.2,604.8-340.7l63.2-49.8l-59.3-74.6c-88-112.9-172.2-271.8-206.7-398.1c-45.9-160.8-30.6-434.4,32.5-608.6c95.7-256.5,300.5-564.6,576.1-865l143.5-156.9l9.6-736.8l7.7-734.9l88-593.3c116.7-782.8,147.4-1092.8,147.4-1467.9c-1.9-501.4-65.1-748.3-237.3-926.3c-132.1-134-250.7-170.3-509.1-155c-231.6,15.3-392.3,68.9-507.2,170.3c-109.1,95.7-168.4,197.1-222,378.9c-57.4,202.9-68.9,702.4-28.7,1314.8c34.5,528.2,40.2,1177,11.5,1498.5c-99.5,1106.2-467,1745.4-1090.9,1902.3l-105.3,24.9l-9.6,1242.1c-9.6,1222.9-9.6,1244-51.7,1353.1c-122.5,325.4-405.7,576.1-736.8,654.5C5245.7,5030.3,1854.4,5030.3,1686,4988.2z M4916.5,3728.9l65.1-65.1v-888c0-788.5-3.8-891.8-30.6-932c-68.9-97.6-67-97.6-1399-97.6c-1142.6,0-1245.9,1.9-1307.1,34.5c-36.4,17.2-76.6,53.6-90,80.4c-19.1,36.4-24.9,262.2-24.9,926.3v876.5l65.1,65.1l65.1,65.1h1295.7h1295.7L4916.5,3728.9z"/></g></g>
</svg>